<svg xmlns="http://www.w3.org/2000/svg" width="462.896" height="140.223" viewBox="0 0 462.896 140.223">
  <g id="blaa_u_payoff" transform="translate(-234.3 -199.85)" style="isolation: isolate">
    <path id="Path_1" data-name="Path 1" d="M400.594,231.64H340.6v19.994h19.994v80h19.994v-80h20.007Z" transform="translate(28.216 8.438)" fill="#fff"/>
    <path id="Path_2" data-name="Path 2" d="M294.307,271.628H254.294V251.634h40.013V231.64H234.3v59.994h40v19.994h-40v20.007h60.007Z" transform="translate(0 8.438)" fill="#fff"/>
    <path id="Path_3" data-name="Path 3" d="M552.69,251.634h39.988v59.994H572.684v20.007h40V231.64H552.69Z" transform="translate(84.512 8.438)" fill="#fff"/>
    <path id="Path_4" data-name="Path 4" d="M400.594,231.64H340.6v19.994h19.994v80h19.994v-80h20.007Z" transform="translate(28.216 8.438)" fill="#fff"/>
    <path id="Path_5" data-name="Path 5" d="M552.69,231.64v19.994h39.988v59.994H572.684v20.007h40V231.64Z" transform="translate(84.512 8.438)" fill="#fff"/>
    <path id="Path_6" data-name="Path 6" d="M506.654,231.64H446.66v99.995h59.994Zm-20.007,79.988H466.641V251.634h20.007Z" transform="translate(56.368 8.438)" fill="#fff"/>
    <rect id="Rectangle_4" data-name="Rectangle 4" width="19.994" height="20.007" transform="translate(522.768 199.85)" fill="#fff"/>
    <rect id="Rectangle_5" data-name="Rectangle 5" width="19.994" height="20.007" transform="translate(562.756 199.85)" fill="#fff"/>
  </g>
</svg>
