<svg xmlns="http://www.w3.org/2000/svg" width="366.065" height="110.89" viewBox="0 0 366.065 110.89">
  <g id="blaa_u_payoff" transform="translate(-234.3 -199.85)">
    <path id="Path_1" data-name="Path 1" d="M388.044,231.64H340.6v15.811h15.811v63.266h15.811V247.451h15.821Z" transform="translate(0.077 0.023)"/>
    <path id="Path_2" data-name="Path 2" d="M281.754,263.263H250.111V247.451h31.643V231.64H234.3v47.444h31.633V294.9H234.3v15.821h47.454Z" transform="translate(0 0.023)"/>
    <path id="Path_3" data-name="Path 3" d="M552.69,247.451h31.623V294.9H568.5v15.821h31.633V231.64H552.69Z" transform="translate(0.23 0.023)"/>
    <path id="Path_4" data-name="Path 4" d="M388.044,231.64H340.6v15.811h15.811v63.266h15.811V247.451h15.821Z" transform="translate(0.077 0.023)"/>
    <path id="Path_5" data-name="Path 5" d="M552.69,231.64v15.811h31.623V294.9H568.5v15.821h31.633V231.64Z" transform="translate(0.23 0.023)"/>
    <path id="Path_6" data-name="Path 6" d="M494.1,231.64H446.66v79.077H494.1ZM478.283,294.9H462.461V247.451h15.822Z" transform="translate(0.154 0.023)"/>
    <rect id="Rectangle_1" data-name="Rectangle 1" width="15.811" height="15.821" transform="translate(462.425 199.85)"/>
    <rect id="Rectangle_2" data-name="Rectangle 2" width="15.811" height="15.821" transform="translate(494.048 199.85)"/>
  </g>
</svg>
